<?xml version="1.0" encoding="UTF-8"?>
<svg version="1.1" xmlns="http://www.w3.org/2000/svg" width="283" height="263">
<path d="M0 0 C93.39 0 186.78 0 283 0 C283 86.79 283 173.58 283 263 C189.61 263 96.22 263 0 263 C0 176.21 0 89.42 0 0 Z " fill="#FEFEFE" transform="translate(0,0)"/>
<path d="M0 0 C0.792854 0.00870117 1.58570801 0.01740234 2.40258789 0.02636719 C8.6967796 0.18425583 14.8701194 0.50387038 19.82714844 4.87646484 C21.87907032 8.82668466 21.51236309 12.71799233 21.453125 17.1015625 C21.45125183 18.04558929 21.44937866 18.98961609 21.44744873 19.96224976 C21.44073456 21.95436138 21.42683267 23.94645996 21.40625 25.93847656 C21.37504525 28.99556664 21.3652732 32.05214131 21.359375 35.109375 C21.35020684 37.04427715 21.33983167 38.97917404 21.328125 40.9140625 C21.32175018 42.29061508 21.32175018 42.29061508 21.31524658 43.69497681 C21.30563904 44.54280731 21.29603149 45.39063782 21.28613281 46.26416016 C21.27930481 47.01154449 21.27247681 47.75892883 21.26544189 48.52896118 C21.125 50.375 21.125 50.375 20.125 52.375 C21.445 52.705 22.765 53.035 24.125 53.375 C24.45021241 58.0363779 23.94451666 60.61564446 21.125 64.375 C20.135 65.035 19.145 65.695 18.125 66.375 C17.07452356 68.68604818 16.07492562 71.02083651 15.125 73.375 C14.465 74.365 13.805 75.355 13.125 76.375 C13.03325354 78.75955198 13.03325354 78.75955198 13.25 81.3125 C13.36054566 86.04523608 13.36054566 86.04523608 11.25 89 C9.125 90.375 9.125 90.375 7.125 90.375 C7.0425 91.138125 6.96 91.90125 6.875 92.6875 C5.93648864 96.05049903 5.1173528 96.64258522 2.125 98.375 C-1.375 99.875 -1.375 99.875 -4.875 101.375 C-7.21378876 102.93828365 -7.21378876 102.93828365 -8.875 104.375 C-9.22788435 100.5814932 -9.15893415 98.81558747 -7.0625 95.5625 C-4.875 93.375 -4.875 93.375 -1.875 92.375 C-2.70644531 91.97667969 -2.70644531 91.97667969 -3.5546875 91.5703125 C-4.27914062 91.21710938 -5.00359375 90.86390625 -5.75 90.5 C-6.46929687 90.15195313 -7.18859375 89.80390625 -7.9296875 89.4453125 C-9.875 88.375 -9.875 88.375 -11.875 86.375 C-11.6275 85.281875 -11.38 84.18875 -11.125 83.0625 C-10.09641086 76.61903931 -13.6934254 70.78010201 -16.875 65.375 C-18.17123422 64.00557223 -19.49747374 62.66262454 -20.875 61.375 C-22.26931504 58.58636993 -22.13160094 56.45421132 -21.875 53.375 C-20.885 52.715 -19.895 52.055 -18.875 51.375 C-19.205 50.715 -19.535 50.055 -19.875 49.375 C-20.65647594 35.79110942 -19.42737644 21.95229545 -18.875 8.375 C-17.885 8.705 -16.895 9.035 -15.875 9.375 C-15.875 16.635 -15.875 23.895 -15.875 31.375 C-15.215 31.375 -14.555 31.375 -13.875 31.375 C-13.875 23.455 -13.875 15.535 -13.875 7.375 C-13.545 7.375 -13.215 7.375 -12.875 7.375 C-12.875 14.965 -12.875 22.555 -12.875 30.375 C-12.215 30.375 -11.555 30.375 -10.875 30.375 C-10.875 22.125 -10.875 13.875 -10.875 5.375 C-13.185 6.035 -15.495 6.695 -17.875 7.375 C-16.86247974 4.11243471 -15.91101237 3.39414171 -12.83984375 1.76171875 C-8.55996809 0.03164971 -4.57036822 -0.08291355 0 0 Z " fill="#AA8C72" transform="translate(139.875,83.625)"/>
<path d="M0 0 C0.33 0.66 0.66 1.32 1 2 C1.969375 1.649375 2.93875 1.29875 3.9375 0.9375 C9.09908069 -0.54173349 14.15271745 0.01537823 19.19140625 1.7578125 C21 3 21 3 21.828125 5.1640625 C21.96734375 5.97617188 22.1065625 6.78828125 22.25 7.625 C22.39953125 8.44226563 22.5490625 9.25953125 22.703125 10.1015625 C22.85007812 11.04128906 22.85007812 11.04128906 23 12 C24.32 12 25.64 12 27 12 C26.5020163 15.73487777 26.12508244 17.81237635 24 21 C23.01 21.33 22.02 21.66 21 22 C20.27688236 23.97213902 19.55697951 25.94564657 18.8671875 27.9296875 C17.52334331 31.13796417 15.73180765 32.88905772 13 35 C7.98160088 37.04453297 4.25012335 37.33639503 -1 36 C-5.35640588 33.65424299 -7.91209481 31.50547961 -10 27 C-10.144375 26.113125 -10.28875 25.22625 -10.4375 24.3125 C-10.623125 23.549375 -10.80875 22.78625 -11 22 C-11.66 21.67 -12.32 21.34 -13 21 C-13.66 20.67 -14.32 20.34 -15 20 C-15.75 17.375 -15.75 17.375 -16 15 C-15 15 -14 15 -13 15 C-12.34 11.04 -11.68 7.08 -11 3 C-9.68 2.67 -8.36 2.34 -7 2 C-6.01 1.67 -5.02 1.34 -4 1 C-3.67 1.66 -3.34 2.32 -3 3 C-2.01 2.01 -1.02 1.02 0 0 Z " fill="#F2EEEA" transform="translate(136,126)"/>
<path d="M0 0 C1.16692383 -0.0309375 1.16692383 -0.0309375 2.35742188 -0.0625 C8.01060207 -0.1002193 12.15406562 0.9068082 17.3125 3.25 C19.3125 5.25 19.3125 5.25 19.53955078 7.68017578 C19.52907715 8.6751709 19.51860352 9.67016602 19.5078125 10.6953125 C19.50136719 11.77167969 19.49492187 12.84804687 19.48828125 13.95703125 C19.47152344 15.08496094 19.45476562 16.21289062 19.4375 17.375 C19.42847656 18.51066406 19.41945312 19.64632812 19.41015625 20.81640625 C19.38653098 23.62781299 19.35359013 26.43880298 19.3125 29.25 C18.64863281 29.04503906 17.98476562 28.84007813 17.30078125 28.62890625 C16.41777344 28.35949219 15.53476563 28.09007813 14.625 27.8125 C13.75488281 27.54566406 12.88476562 27.27882813 11.98828125 27.00390625 C9.4620978 26.29214945 6.8860714 25.76471428 4.3125 25.25 C4.3125 17.33 4.3125 9.41 4.3125 1.25 C3.6525 1.25 2.9925 1.25 2.3125 1.25 C2.3125 9.17 2.3125 17.09 2.3125 25.25 C1.9825 25.25 1.6525 25.25 1.3125 25.25 C1.3125 17.33 1.3125 9.41 1.3125 1.25 C0.6525 1.25 -0.0075 1.25 -0.6875 1.25 C-0.6875 9.17 -0.6875 17.09 -0.6875 25.25 C-1.0175 25.25 -1.3475 25.25 -1.6875 25.25 C-1.6875 17.33 -1.6875 9.41 -1.6875 1.25 C-2.3475 1.25 -3.0075 1.25 -3.6875 1.25 C-3.6875 9.17 -3.6875 17.09 -3.6875 25.25 C-5.9975 25.58 -8.3075 25.91 -10.6875 26.25 C-11.0175 18 -11.3475 9.75 -11.6875 1.25 C-7.78875008 -0.04958331 -4.06417957 0.0262841 0 0 Z " fill="#CFBFB0" transform="translate(140.6875,86.75)"/>
<path d="M0 0 C0.825 -0.020625 1.65 -0.04125 2.5 -0.0625 C7.99065659 -0.09736131 11.76127926 0.6610427 16.625 3.25 C18.625 5.25 18.625 5.25 18.8203125 7.6328125 C18.79710937 8.53773437 18.77390625 9.44265625 18.75 10.375 C18.73195312 11.28507812 18.71390625 12.19515625 18.6953125 13.1328125 C18.67210937 13.83148438 18.64890625 14.53015625 18.625 15.25 C17.89023438 14.92515625 17.89023438 14.92515625 17.140625 14.59375 C10.94198643 12.2852915 5.04321956 11.91825301 -1.5 11.875 C-2.3465918 11.86146484 -3.19318359 11.84792969 -4.06542969 11.83398438 C-9.8166245 11.87434364 -14.10259869 12.94865162 -19.375 15.25 C-19.65828595 11.54210162 -19.81215494 7.94942365 -19.375 4.25 C-14.37318083 -0.60891006 -6.57699387 0.04072442 0 0 Z " fill="#FCFBFA" transform="translate(141.375,113.75)"/>
<path d="M0 0 C4.75 0.875 4.75 0.875 7 2 C6.34 6.62 5.68 11.24 5 16 C5.66 16 6.32 16 7 16 C7.03738281 15.16855469 7.07476562 14.33710938 7.11328125 13.48046875 C7.17902344 12.39378906 7.24476562 11.30710938 7.3125 10.1875 C7.37050781 9.10855469 7.42851563 8.02960938 7.48828125 6.91796875 C8.03068507 3.82502483 8.55289624 2.86977097 11 1 C12.98 1.99 14.96 2.98 17 4 C16.80664062 4.72703125 16.61328125 5.4540625 16.4140625 6.203125 C14.77007294 12.5512035 13.47451934 18.80446132 12.625 25.30859375 C11.9243336 28.32583843 10.71175571 30.43701795 9 33 C4.52761347 31.58192622 0.28853694 29.88695626 -4 28 C-3.34 26.02 -2.68 24.04 -2 22 C0.76276177 22.52268466 3.3260876 23.10869587 6 24 C5.12511062 21.6686673 5.12511062 21.6686673 2.125 21 C1.09375 20.67 0.0625 20.34 -1 20 C-1.99 19.34 -2.98 18.68 -4 18 C-2.07289294 5.33029613 -2.07289294 5.33029613 0 0 Z " fill="#75461C" transform="translate(119,213)"/>
<path d="M0 0 C0.53625 0.763125 1.0725 1.52625 1.625 2.3125 C4.88471669 6.00112679 8.11811557 7.40121859 12.75 8.875 C17.49557141 9.05752198 21.555159 7.55481592 26 6 C27.60300347 16.10589141 27.60300347 16.10589141 25.1875 19.6875 C23 21 23 21 21 21 C20.87625 22.1446875 20.87625 22.1446875 20.75 23.3125 C19.81148864 26.67549903 18.9923528 27.26758522 16 29 C12.5 30.5 12.5 30.5 9 32 C6.66121124 33.56328365 6.66121124 33.56328365 5 35 C4.64711565 31.2064932 4.71606585 29.44058747 6.8125 26.1875 C9 24 9 24 12 23 C11.44570312 22.73445313 10.89140625 22.46890625 10.3203125 22.1953125 C9.59585938 21.84210938 8.87140625 21.48890625 8.125 21.125 C7.40570313 20.77695313 6.68640625 20.42890625 5.9453125 20.0703125 C4 19 4 19 2 17 C2.29527225 15.03151837 2.59232583 13.06324961 2.90625 11.09765625 C3.04994708 7.88243412 1.58240273 5.72173269 0 3 C0 2.01 0 1.02 0 0 Z " fill="#7A4C23" transform="translate(126,153)"/>
<path d="M0 0 C1.32 5.61 2.64 11.22 4 17 C0 19 0 19 -3 19 C-3.66 15.7 -4.32 12.4 -5 9 C-6.32 9.33 -7.64 9.66 -9 10 C-8.34 11.98 -7.68 13.96 -7 16 C-9.31 16.33 -11.62 16.66 -14 17 C-14.33 16.01 -14.66 15.02 -15 14 C-15.66 13.67 -16.32 13.34 -17 13 C-17 16.3 -17 19.6 -17 23 C-19.31 23 -21.62 23 -24 23 C-24.84681133 17.91913204 -25.09038099 13.15171623 -25 8 C-24.154375 7.75765625 -23.30875 7.5153125 -22.4375 7.265625 C-14.73956616 5.01373221 -14.73956616 5.01373221 -7.4375 1.75 C-4 0 -4 0 0 0 Z " fill="#7B4E25" transform="translate(70,153)"/>
<path d="M0 0 C2.31 0 4.62 0 7 0 C7.19916016 1.32064453 7.19916016 1.32064453 7.40234375 2.66796875 C7.57894531 3.82941406 7.75554687 4.99085937 7.9375 6.1875 C8.11152344 7.33605469 8.28554687 8.48460937 8.46484375 9.66796875 C8.78340373 11.65141156 9.13674025 13.63052447 9.5625 15.59375 C10.31296668 19.72131677 10.05581605 23.81379632 10 28 C5.71 28 1.42 28 -3 28 C-3 26.02 -3 24.04 -3 22 C-0.69 22 1.62 22 4 22 C4 20.68 4 19.36 4 18 C3.34 18 2.68 18 2 18 C2 18.66 2 19.32 2 20 C-0.97 20 -3.94 20 -7 20 C-7 16.04 -7 12.08 -7 8 C-7.66 8 -8.32 8 -9 8 C-9 6.02 -9 4.04 -9 2 C-6.69 2 -4.38 2 -2 2 C-1.67 5.96 -1.34 9.92 -1 14 C-0.01 14 0.98 14 2 14 C1.67 12.80375 1.34 11.6075 1 10.375 C0.10734177 6.84208503 -0.18296045 3.65920891 0 0 Z " fill="#74451A" transform="translate(125,33)"/>
<path d="M0 0 C4.75 0.875 4.75 0.875 7 2 C7.33 2.99 7.66 3.98 8 5 C8.66 4.773125 9.32 4.54625 10 4.3125 C14.18368542 3.87669944 17.21203546 5.33630342 21 7 C21 9.31 21 11.62 21 14 C17.7 13.34 14.4 12.68 11 12 C12.670625 12.7115625 12.670625 12.7115625 14.375 13.4375 C16.26710994 14.25306463 18.15712709 15.07856355 20 16 C19.11276572 18.80957522 18.48477947 20.5988032 16.1875 22.5 C12.99338691 23.23008299 11.78070786 21.68747066 9 20 C6.43068744 18.84753425 3.8127561 17.82994375 1.1875 16.8125 C0.14819336 16.40354492 0.14819336 16.40354492 -0.91210938 15.98632812 C-2.60651821 15.32025017 -4.30304737 14.65957027 -6 14 C-6 11.69 -6 9.38 -6 7 C-3.69 7.66 -1.38 8.32 1 9 C0.67 6.03 0.34 3.06 0 0 Z " fill="#75461C" transform="translate(217,154)"/>
<path d="M0 0 C5.94 0.33 11.88 0.66 18 1 C18 3.31 18 5.62 18 8 C14.7 8 11.4 8 8 8 C8.33 9.19625 8.66 10.3925 9 11.625 C9.89265823 15.15791497 10.18296045 18.34079109 10 22 C12.97 21.34 15.94 20.68 19 20 C21 23 21 23 21 26 C16.78103134 28.04898287 13.34627854 28.21207997 8.6875 28.125 C5.3771875 28.063125 5.3771875 28.063125 2 28 C2 21.4 2 14.8 2 8 C1.34 7.67 0.68 7.34 0 7 C0 4.69 0 2.38 0 0 Z " fill="#7A4C24" transform="translate(148,207)"/>
<path d="M0 0 C1.8125 1.125 1.8125 1.125 3.8125 4.125 C4.35772803 7.18975543 4.36092924 10.06024839 3.8125 13.125 C1.375 16.125 1.375 16.125 -1.1875 18.125 C-1.5175 18.455 -1.8475 18.785 -2.1875 19.125 C-5.11978663 19.41822866 -7.33241883 19.62504247 -10.1875 19.125 C-13.125 16.6875 -13.125 16.6875 -15.1875 14.125 C-15.5175 13.795 -15.8475 13.465 -16.1875 13.125 C-16.68944013 10.04982251 -16.75093492 7.19259014 -16.1875 4.125 C-11.83090714 -1.77570173 -6.46766843 -2.58706737 0 0 Z " fill="#724217" transform="translate(56.1875,124.875)"/>
<path d="M0 0 C2.99559257 1.29011865 3.81502626 2.32340716 6 5 C6.73994373 8.14760681 6.68576465 10.84548261 6 14 C4.20606332 16.87029869 3.01736724 18.49131638 0 20 C-7.13230769 20.70153846 -7.13230769 20.70153846 -10.9375 17.625 C-14.14138495 13.54732825 -14.4417127 11.21220986 -14 6 C-10.28705559 0.30681857 -6.72433463 -1.05846008 0 0 Z " fill="#714116" transform="translate(237,124)"/>
<path d="M0 0 C0.76699219 0.23589844 1.53398438 0.47179687 2.32421875 0.71484375 C3.31421875 0.38484375 4.30421875 0.05484375 5.32421875 -0.28515625 C6.1649129 1.31516512 6.9965338 2.92025546 7.82421875 4.52734375 C8.28828125 5.42066406 8.75234375 6.31398437 9.23046875 7.234375 C10.32421875 9.71484375 10.32421875 9.71484375 10.32421875 12.71484375 C9.68613281 12.9571875 9.04804687 13.19953125 8.390625 13.44921875 C7.56433594 13.784375 6.73804687 14.11953125 5.88671875 14.46484375 C5.06300781 14.7896875 4.23929688 15.11453125 3.390625 15.44921875 C1.13090291 16.51357212 1.13090291 16.51357212 0.73046875 18.77734375 C0.59640625 19.41671875 0.46234375 20.05609375 0.32421875 20.71484375 C-2.73828125 21.96484375 -2.73828125 21.96484375 -5.67578125 22.71484375 C-6.33578125 20.40484375 -6.99578125 18.09484375 -7.67578125 15.71484375 C-8.29453125 15.67359375 -8.91328125 15.63234375 -9.55078125 15.58984375 C-10.60265625 15.15671875 -10.60265625 15.15671875 -11.67578125 14.71484375 C-12.40880739 12.73820086 -13.08034158 10.73719289 -13.67578125 8.71484375 C-11.96277133 7.17583484 -10.22970637 5.65912506 -8.48828125 4.15234375 C-7.52535156 3.30542969 -6.56242187 2.45851562 -5.5703125 1.5859375 C-2.67578125 -0.28515625 -2.67578125 -0.28515625 0 0 Z " fill="#7B4E25" transform="translate(73.67578125,184.28515625)"/>
<path d="M0 0 C1.95497263 1.72939887 2.28470355 2.88527664 2.625 5.4375 C1.305 5.7675 -0.015 6.0975 -1.375 6.4375 C-0.570625 7.22125 0.23375 8.005 1.0625 8.8125 C3.625 11.4375 3.625 11.4375 4.625 13.4375 C2.32721327 14.8325848 1.1457033 15.51188619 -1.5625 15.125 C-3.375 14.4375 -3.375 14.4375 -4.375 13.4375 C-4.54 14.035625 -4.705 14.63375 -4.875 15.25 C-7.19493605 18.63324007 -10.43586098 19.61847109 -14.375 20.4375 C-16.8125 19.875 -16.8125 19.875 -18.375 18.4375 C-19.125 16.3125 -19.125 16.3125 -19.375 14.4375 C-18.240625 14.14875 -17.10625 13.86 -15.9375 13.5625 C-14.761875 13.19125 -13.58625 12.82 -12.375 12.4375 C-12.045 11.7775 -11.715 11.1175 -11.375 10.4375 C-12.365 10.4375 -13.355 10.4375 -14.375 10.4375 C-14.375 11.0975 -14.375 11.7575 -14.375 12.4375 C-16.685 12.7675 -18.995 13.0975 -21.375 13.4375 C-21.375 10.7975 -21.375 8.1575 -21.375 5.4375 C-20.58996094 5.25574219 -19.80492187 5.07398437 -18.99609375 4.88671875 C-12.01314659 3.26177639 -12.01314659 3.26177639 -5.375 0.625 C-2.375 -0.5625 -2.375 -0.5625 0 0 Z " fill="#784A21" transform="translate(238.375,91.5625)"/>
<path d="M0 0 C1.03544174 1.90881434 2.05290085 3.82739204 3.0625 5.75 C3.63097656 6.81734375 4.19945312 7.8846875 4.78515625 8.984375 C6.01044806 12.02593537 6.25348607 13.04893565 5 16 C4.34 16 3.68 16 3 16 C3.33 17.65 3.66 19.3 4 21 C0.1389146 22.43668294 -2.896427 23.11185208 -7 23 C-11.34674122 16.07884955 -13.81038091 11.23887262 -13 3 C-11.2092015 2.49689942 -9.41733089 1.99761372 -7.625 1.5 C-6.62726563 1.2215625 -5.62953125 0.943125 -4.6015625 0.65625 C-2 0 -2 0 0 0 Z " fill="#75461C" transform="translate(192,201)"/>
<path d="M0 0 C1.3671875 1.42578125 1.3671875 1.42578125 2.875 3.3125 C5.05439745 5.95128024 7.11145136 8.11133358 10 10 C9.835 10.928125 9.67 11.85625 9.5 12.8125 C8.92251612 15.95621353 8.92251612 15.95621353 9 19 C7.46875 20.38671875 7.46875 20.38671875 5.5 21.6875 C4.8503125 22.12449219 4.200625 22.56148437 3.53125 23.01171875 C2.77328125 23.50091797 2.77328125 23.50091797 2 24 C-1.54775079 22.02902734 -4.18688566 19.91011828 -7 17 C-7.66 16.67 -8.32 16.34 -9 16 C-9.73080266 14.02253397 -10.39421747 12.01927511 -11 10 C-11.33 9.01 -11.66 8.02 -12 7 C-10.3790787 5.82767315 -8.75313167 4.6622923 -7.125 3.5 C-6.22007812 2.8503125 -5.31515625 2.200625 -4.3828125 1.53125 C-2 0 -2 0 0 0 Z " fill="#75461B" transform="translate(212,181)"/>
<path d="M0 0 C1.98 0.66 3.96 1.32 6 2 C4.68 4.97 3.36 7.94 2 11 C3.32 11.33 4.64 11.66 6 12 C6.33 10.35 6.66 8.7 7 7 C9.9375 8.25 9.9375 8.25 13 10 C13.875 12.1875 13.875 12.1875 14 14 C15.32 12.35 16.64 10.7 18 9 C19.65 9.66 21.3 10.32 23 11 C22.38801624 14.43950364 21.07941153 16.51564485 18.9375 19.25 C18.38964844 19.95640625 17.84179688 20.6628125 17.27734375 21.390625 C16.85582031 21.92171875 16.43429688 22.4528125 16 23 C12.51209474 21.94351791 9.03676144 20.8504448 5.5625 19.75 C4.56927734 19.44964844 3.57605469 19.14929688 2.55273438 18.83984375 C1.13637695 18.38544922 1.13637695 18.38544922 -0.30859375 17.921875 C-1.18314209 17.64956055 -2.05769043 17.37724609 -2.95874023 17.09667969 C-5 16 -5 16 -5.86914062 14.06835938 C-6.07651344 10.79063079 -4.58389194 8.606491 -3.0625 5.75 C-2.49660156 4.67234375 -1.93070313 3.5946875 -1.34765625 2.484375 C-0.90292969 1.66453125 -0.45820312 0.8446875 0 0 Z " fill="#76471D" transform="translate(45,89)"/>
<path d="M0 0 C5.23272633 1.63958758 10.15196636 3.38952035 15 6 C14.34 7.65 13.68 9.3 13 11 C9.63672037 10.43945339 7.00887781 9.58158962 4 8 C3.93941406 8.59167969 3.87882813 9.18335938 3.81640625 9.79296875 C3.37987629 13.90978208 2.91328654 17.95544533 2 22 C4.64 22 7.28 22 10 22 C10 23.98 10 25.96 10 28 C3.80282648 29.75137513 0.50720839 28.17309311 -5.05859375 25.12890625 C-5.69925781 24.75636719 -6.33992187 24.38382813 -7 24 C-6.34 22.02 -5.68 20.04 -5 18 C-4.34 18 -3.68 18 -3 18 C-3.04125 16.7625 -3.0825 15.525 -3.125 14.25 C-3.14274893 10.89545162 -2.6391477 8.95046585 -1 6 C-1.33 5.01 -1.66 4.02 -2 3 C-1.34 2.01 -0.68 1.02 0 0 Z " fill="#77491F" transform="translate(155,26)"/>
<path d="M0 0 C3 1 3 1 5 4 C5 4.99 5 5.98 5 7 C7.31 7.66 9.62 8.32 12 9 C12.33 10.32 12.66 11.64 13 13 C12.38125 13.4125 11.7625 13.825 11.125 14.25 C8.89326974 16.08789551 8.2339319 17.44987408 7 20 C4 22 4 22 1 22 C1 21.34 1 20.68 1 20 C0.2575 19.7525 -0.485 19.505 -1.25 19.25 C-4.29871536 17.86422029 -5.95623982 16.64931875 -8 14 C-8.1875 11.4375 -8.1875 11.4375 -8 9 C-8.33 8.01 -8.66 7.02 -9 6 C-7.57140593 4.96674014 -6.13177617 3.94872366 -4.6875 2.9375 C-3.88699219 2.36902344 -3.08648437 1.80054687 -2.26171875 1.21484375 C-1.51535156 0.81394531 -0.76898438 0.41304687 0 0 Z " fill="#7C4F27" transform="translate(71,63)"/>
<path d="M0 0 C1.16796875 1.7421875 1.16796875 1.7421875 2.1875 3.875 C2.53167969 4.57367188 2.87585938 5.27234375 3.23046875 5.9921875 C4 8 4 8 4 11 C1.375 12.9375 1.375 12.9375 -2 15 C-3.12850687 15.74471286 -4.25371022 16.49446427 -5.375 17.25 C-6.674375 18.11625 -6.674375 18.11625 -8 19 C-8.598125 18.67 -9.19625 18.34 -9.8125 18 C-12.05386471 16.79212012 -12.05386471 16.79212012 -15 17 C-15.99 14.03 -16.98 11.06 -18 8 C-16.44704556 6.67621942 -14.88219918 5.36638151 -13.3125 4.0625 C-12.44238281 3.33160156 -11.57226562 2.60070312 -10.67578125 1.84765625 C-6.82752139 -0.80960932 -4.45217526 -1.48405842 0 0 Z " fill="#7E522A" transform="translate(219,66)"/>
<path d="M0 0 C0.66 0 1.32 0 2 0 C3.7265625 1.75 3.7265625 1.75 5.625 4 C6.57246094 5.11375 6.57246094 5.11375 7.5390625 6.25 C8.02117187 6.8275 8.50328125 7.405 9 8 C7.35821735 12.77609498 4.73453298 16.79382904 2 21 C0.8553125 20.690625 0.8553125 20.690625 -0.3125 20.375 C-3.21885944 19.66608797 -3.21885944 19.66608797 -6 22 C-7.98 19.69 -9.96 17.38 -12 15 C-11.12095843 13.22077152 -10.22100077 11.45186799 -9.3125 9.6875 C-8.81363281 8.70136719 -8.31476563 7.71523438 -7.80078125 6.69921875 C-5.8248615 3.7374822 -4.13224559 2.60508107 -1 1 C-0.67 0.67 -0.34 0.34 0 0 Z " fill="#75461C" transform="translate(190,43)"/>
<path d="M0 0 C0.792854 0.00870117 1.58570801 0.01740234 2.40258789 0.02636719 C8.6967796 0.18425583 14.8701194 0.50387038 19.82714844 4.87646484 C21.87907032 8.82668466 21.51236309 12.71799233 21.453125 17.1015625 C21.45125183 18.04558929 21.44937866 18.98961609 21.44744873 19.96224976 C21.44073456 21.95436138 21.42683267 23.94645996 21.40625 25.93847656 C21.37504525 28.99556664 21.3652732 32.05214131 21.359375 35.109375 C21.35020684 37.04427715 21.33983167 38.97917404 21.328125 40.9140625 C21.32175018 42.29061508 21.32175018 42.29061508 21.31524658 43.69497681 C21.30563904 44.54280731 21.29603149 45.39063782 21.28613281 46.26416016 C21.27930481 47.01154449 21.27247681 47.75892883 21.26544189 48.52896118 C21.125 50.375 21.125 50.375 20.125 52.375 C21.445 52.705 22.765 53.035 24.125 53.375 C24.45021241 58.0363779 23.94451666 60.61564446 21.125 64.375 C20.135 65.035 19.145 65.695 18.125 66.375 C17.10970459 68.70171865 16.11011802 71.0353447 15.125 73.375 C13.4375 75.3125 13.4375 75.3125 12.125 76.375 C12.393125 75.715 12.66125 75.055 12.9375 74.375 C13.60194199 72.69640972 14.24749248 71.00889887 14.8203125 69.296875 C15.06523437 68.58015625 15.31015625 67.8634375 15.5625 67.125 C15.78808594 66.43921875 16.01367188 65.7534375 16.24609375 65.046875 C17.125 63.375 17.125 63.375 20.125 62.375 C22.08042188 59.39040871 22.125 58.11085209 22.125 54.375 C20.145 54.87 20.145 54.87 18.125 55.375 C17.135 50.425 17.135 50.425 16.125 45.375 C14.145 44.715 12.165 44.055 10.125 43.375 C13.78138537 42.0207832 15.63827392 42.86003776 19.125 44.375 C19.24855727 39.30306922 19.33931615 34.23201304 19.3996582 29.15893555 C19.42481005 27.43319441 19.45893619 25.70755988 19.50219727 23.98217773 C19.56282433 21.50217419 19.59120101 19.02357778 19.61328125 16.54296875 C19.63908768 15.77099655 19.6648941 14.99902435 19.69148254 14.20365906 C19.74893953 11.76496429 19.74893953 11.76496429 19.125 8.375 C12.12048619 2.39180594 0.79946191 3.74427162 -7.875 4.375 C-11.37091547 5.06456131 -14.59414914 5.99011823 -17.875 7.375 C-16.85793274 4.09778326 -15.85289778 3.36257102 -12.8046875 1.6484375 C-8.55323209 0.0274739 -4.50764656 -0.08177568 0 0 Z " fill="#7E512A" transform="translate(139.875,83.625)"/>
<path d="M0 0 C2.3125 1.875 2.3125 1.875 4 4 C4 4.66 4 5.32 4 6 C1 8 1 8 -1.0625 7.75 C-3 7 -3 7 -5 5 C-5.33 6.32 -5.66 7.64 -6 9 C-4.68 9 -3.36 9 -2 9 C-1.63350577 14.49741345 -1.63350577 14.49741345 -3.19921875 16.64453125 C-5.49609435 18.37341592 -7.15229944 18.59531512 -10 18.875 C-11.299375 19.02582031 -11.299375 19.02582031 -12.625 19.1796875 C-15 19 -15 19 -16.8203125 17.63671875 C-18 16 -18 16 -17.875 13.9375 C-17 12 -17 12 -14 10 C-13.42251197 8.03638136 -13.42251197 8.03638136 -13.3125 5.875 C-13.209375 4.59625 -13.10625 3.3175 -13 2 C-3.48387097 -0.58064516 -3.48387097 -0.58064516 0 0 Z " fill="#74451A" transform="translate(104,204)"/>
<path d="M0 0 C3.6196875 0.0309375 3.6196875 0.0309375 7.3125 0.0625 C6.9825 8.3125 6.6525 16.5625 6.3125 25.0625 C5.9825 25.0625 5.6525 25.0625 5.3125 25.0625 C5.3125 17.1425 5.3125 9.2225 5.3125 1.0625 C4.6525 1.0625 3.9925 1.0625 3.3125 1.0625 C3.3125 8.9825 3.3125 16.9025 3.3125 25.0625 C2.9825 25.0625 2.6525 25.0625 2.3125 25.0625 C2.3125 17.1425 2.3125 9.2225 2.3125 1.0625 C1.6525 1.0625 0.9925 1.0625 0.3125 1.0625 C0.3125 8.9825 0.3125 16.9025 0.3125 25.0625 C-0.0175 25.0625 -0.3475 25.0625 -0.6875 25.0625 C-0.6875 17.1425 -0.6875 9.2225 -0.6875 1.0625 C-1.3475 1.0625 -2.0075 1.0625 -2.6875 1.0625 C-2.6875 8.9825 -2.6875 16.9025 -2.6875 25.0625 C-4.9975 25.3925 -7.3075 25.7225 -9.6875 26.0625 C-10.0175 17.8125 -10.3475 9.5625 -10.6875 1.0625 C-7.06668537 -0.14443821 -3.7624281 -0.04532079 0 0 Z " fill="#F2EEE9" transform="translate(139.6875,86.9375)"/>
<path d="M0 0 C0.33 0 0.66 0 1 0 C1 7.92 1 15.84 1 24 C1.66 24.33 2.32 24.66 3 25 C2.67 25.33 2.34 25.66 2 26 C1.92794489 27.68608966 1.91613932 29.37500659 1.9375 31.0625 C1.95103516 32.44115234 1.95103516 32.44115234 1.96484375 33.84765625 C1.97644531 34.55792969 1.98804687 35.26820312 2 36 C3.40958984 35.26330078 3.40958984 35.26330078 4.84765625 34.51171875 C9.65978722 32.4493769 14.28198672 32.66774477 19.4375 32.8125 C20.35982422 32.82603516 21.28214844 32.83957031 22.23242188 32.85351562 C24.48890383 32.88859047 26.74413226 32.93773613 29 33 C29 33.33 29 33.66 29 34 C26.87528825 34.3351658 24.75022095 34.66807829 22.625 35 C21.44164062 35.185625 20.25828125 35.37125 19.0390625 35.5625 C16 36 16 36 14 36 C12.37485532 37.45833358 12.37485532 37.45833358 11 39 C11 37.68 11 36.36 11 35 C9.35 35.99 7.7 36.98 6 38 C5.67 37.67 5.34 37.34 5 37 C4.86722656 37.83144531 4.73445313 38.66289062 4.59765625 39.51953125 C4.42105469 40.60621094 4.24445313 41.69289062 4.0625 42.8125 C3.80146484 44.43091797 3.80146484 44.43091797 3.53515625 46.08203125 C3 49 3 49 2 52 C1.505 50.515 1.505 50.515 1 49 C0.34 49 -0.32 49 -1 49 C0.1678266 52.81413002 0.1678266 52.81413002 3.125 55.3125 C3.74375 55.539375 4.3625 55.76625 5 56 C5 57.65 5 59.3 5 61 C-2.67799642 53.73703041 -2.67799642 53.73703041 -3.375 47.8125 C-3.25125 46.884375 -3.1275 45.95625 -3 45 C-2.01 44.34 -1.02 43.68 0 43 C-0.33 42.34 -0.66 41.68 -1 41 C-1.78147594 27.41610942 -0.55237644 13.57729545 0 0 Z " fill="#865C37" transform="translate(121,92)"/>
<path d="M0 0 C0 1.98 0 3.96 0 6 C-1.65 6.66 -3.3 7.32 -5 8 C-2.12036571 8.16253988 -2.12036571 8.16253988 0 7.3125 C0.66 7.209375 1.32 7.10625 2 7 C3.6328125 8.19921875 3.6328125 8.19921875 5 10 C5.1796875 12.15625 5.1796875 12.15625 4.875 14.5 C4.78992188 15.2734375 4.70484375 16.046875 4.6171875 16.84375 C3.89206188 19.37710025 3.06133128 20.38786924 1 22 C-1.6875 22.6875 -1.6875 22.6875 -4 23 C-4 21.02 -4 19.04 -4 17 C-2.35 16.34 -0.7 15.68 1 15 C-0.32 14.34 -1.64 13.68 -3 13 C-3 13.66 -3 14.32 -3 15 C-5.97 14.505 -5.97 14.505 -9 14 C-10.50718796 9.61545321 -9.48092612 6.80903753 -7.88671875 2.671875 C-6.1127204 -0.67293247 -3.40603051 -0.08963238 0 0 Z " fill="#784A20" transform="translate(98,42)"/>
<path d="M0 0 C1.010625 0.33 2.02125 0.66 3.0625 1 C9.12275069 2.71055463 14.13800677 2.28760711 20 0 C19.50954829 6.49848513 19.50954829 6.49848513 17.265625 8.70703125 C14.6265332 10.21313364 13.02076033 10.40262891 10 10.375 C9.154375 10.38273438 8.30875 10.39046875 7.4375 10.3984375 C4.4872852 9.91619085 3.12254084 9.08907736 1 7 C0.25 3.3125 0.25 3.3125 0 0 Z " fill="#F9F7F5" transform="translate(131,161)"/>
<path d="M0 0 C0 8.25 0 16.5 0 25 C-2.31 25.66 -4.62 26.32 -7 27 C-7.33 18.42 -7.66 9.84 -8 1 C-3 0 -3 0 0 0 Z " fill="#D6C8BC" transform="translate(129,89)"/>
<path d="M0 0 C0.33 0 0.66 0 1 0 C1 7.92 1 15.84 1 24 C1.66 24 2.32 24 3 24 C3 16.41 3 8.82 3 1 C3.33 1 3.66 1 4 1 C4 8.92 4 16.84 4 25 C4.66 25 5.32 25 6 25 C6 17.41 6 9.82 6 2 C6.33 2 6.66 2 7 2 C7 9.92 7 17.84 7 26 C7.66 26 8.32 26 9 26 C9 18.74 9 11.48 9 4 C9.33 4 9.66 4 10 4 C10.33 12.58 10.66 21.16 11 30 C9.35 29.01 7.7 28.02 6 27 C3.57904795 26.23694738 3.57904795 26.23694738 1.1875 25.8125 C0.00220703 25.57466797 0.00220703 25.57466797 -1.20703125 25.33203125 C-2.09455078 25.16767578 -2.09455078 25.16767578 -3 25 C-3 24.34 -3 23.68 -3 23 C-2.34 23 -1.68 23 -1 23 C-0.67 15.41 -0.34 7.82 0 0 Z " fill="#A08063" transform="translate(149,89)"/>
<path d="M0 0 C0 8.25 0 16.5 0 25 C-1.65 25.33 -3.3 25.66 -5 26 C-5.33 17.75 -5.66 9.5 -6 1 C-3 0 -3 0 0 0 Z " fill="#D3C4B7" transform="translate(135,87)"/>
<path d="M0 0 C0.99 0.33 1.98 0.66 3 1 C2.34 1 1.68 1 1 1 C1.33 1.66 1.66 2.32 2 3 C4.64 3 7.28 3 10 3 C10 3.66 10 4.32 10 5 C10.66 5 11.32 5 12 5 C12 4.34 12 3.68 12 3 C14.97 3 17.94 3 21 3 C21 2.34 21 1.68 21 1 C20.34 0.67 19.68 0.34 19 0 C19.99 0 20.98 0 22 0 C21.67 1.65 21.34 3.3 21 5 C20.01 5 19.02 5 18 5 C18 5.66 18 6.32 18 7 C15.51245214 8.24377393 13.77344699 8.13306235 11 8.125 C10.113125 8.12757813 9.22625 8.13015625 8.3125 8.1328125 C6 8 6 8 4 7 C4 6.34 4 5.68 4 5 C2.68 4.67 1.36 4.34 0 4 C0 2.68 0 1.36 0 0 Z " fill="#A38367" transform="translate(130,148)"/>
<path d="M0 0 C0.12375 0.94875 0.2475 1.8975 0.375 2.875 C0.71687177 6.08667191 0.71687177 6.08667191 3 8 C1.39884424 8.2493357 -0.20620159 8.47378648 -1.8125 8.6875 C-2.70582031 8.81511719 -3.59914063 8.94273437 -4.51953125 9.07421875 C-7 9 -7 9 -8.83203125 7.6484375 C-10 6 -10 6 -9.875 3.9375 C-7.83134282 -0.5877409 -4.34127563 -0.19294558 0 0 Z " fill="#977454" transform="translate(96,214)"/>
<path d="M0 0 C1.98 0.99 1.98 0.99 4 2 C4 9.92 4 17.84 4 26 C2.68 25.67 1.36 25.34 0 25 C0 16.75 0 8.5 0 0 Z " fill="#DACDC2" transform="translate(156,90)"/>
<path d="M0 0 C1.24040039 0.02030273 1.24040039 0.02030273 2.50585938 0.04101562 C4.5250264 0.07603008 6.54385318 0.12982438 8.5625 0.1875 C8.5625 0.8475 8.5625 1.5075 8.5625 2.1875 C7.45132813 2.29707031 6.34015625 2.40664062 5.1953125 2.51953125 C-2.95703449 3.37169296 -10.6930096 4.33326521 -18.4375 7.1875 C-17.42731398 3.93245617 -16.41349549 3.17375224 -13.40234375 1.44921875 C-8.96747034 -0.24907216 -4.68924617 -0.14736551 0 0 Z " fill="#8E6845" transform="translate(140.4375,83.8125)"/>
<path d="M0 0 C3.4847778 0.40520672 4.54293135 1.61193207 6.6875 4.3125 C6.6875 4.9725 6.6875 5.6325 6.6875 6.3125 C3.6875 8.3125 3.6875 8.3125 1.625 8.0625 C-0.3125 7.3125 -0.3125 7.3125 -2.3125 5.3125 C-3.3025 5.8075 -3.3025 5.8075 -4.3125 6.3125 C-3.25852273 0.44034091 -3.25852273 0.44034091 0 0 Z " fill="#794C23" transform="translate(101.3125,203.6875)"/>
<path d="M0 0 C0.66 0 1.32 0 2 0 C3.125 4.75 3.125 4.75 2 7 C0.02 7 -1.96 7 -4 7 C-4.33 7.66 -4.66 8.32 -5 9 C-5 6.69 -5 4.38 -5 2 C-4.360625 1.855625 -3.72125 1.71125 -3.0625 1.5625 C-1.02454854 1.18992819 -1.02454854 1.18992819 0 0 Z " fill="#F5F2EF" transform="translate(130,127)"/>
<path d="M0 0 C0.99 0.33 1.98 0.66 3 1 C3.33 2.98 3.66 4.96 4 7 C3.34 6.67 2.68 6.34 2 6 C2 5.34 2 4.68 2 4 C1.34 4 0.68 4 0 4 C1.1678266 7.81413002 1.1678266 7.81413002 4.125 10.3125 C4.74375 10.539375 5.3625 10.76625 6 11 C6 12.65 6 14.3 6 16 C2.35403795 12.6496565 -0.33111713 9.71213988 -2 5 C-1.1875 2.125 -1.1875 2.125 0 0 Z " fill="#A18164" transform="translate(120,137)"/>
<path d="M0 0 C2.9375 2.5625 2.9375 2.5625 5 5 C2 5 2 5 -1.625 3.5625 C-6.03115993 1.82624367 -10.29948306 1.31554396 -15 1 C-15 0.67 -15 0.34 -15 0 C-9.74395121 -0.82990244 -5.2307992 -1.38172054 0 0 Z " fill="#8E6745" transform="translate(156,86)"/>
<path d="M0 0 C0.66 0 1.32 0 2 0 C2.32521241 4.6613779 1.81951666 7.24064446 -1 11 C-1.99 11.66 -2.98 12.32 -4 13 C-5.01529541 15.32671865 -6.01488198 17.6603447 -7 20 C-8.6875 21.9375 -8.6875 21.9375 -10 23 C-9.731875 22.34 -9.46375 21.68 -9.1875 21 C-8.52305801 19.32140972 -7.87750752 17.63389887 -7.3046875 15.921875 C-6.93730469 14.84679687 -6.93730469 14.84679687 -6.5625 13.75 C-6.33691406 13.06421875 -6.11132812 12.3784375 -5.87890625 11.671875 C-5 10 -5 10 -2 9 C0.04108797 5.99208089 0.19878036 3.57804656 0 0 Z " fill="#967252" transform="translate(162,137)"/>
<path d="M0 0 C5.61 0 11.22 0 17 0 C17 0.33 17 0.66 17 1 C14.87528825 1.3351658 12.75022095 1.66807829 10.625 2 C9.44164062 2.185625 8.25828125 2.37125 7.0390625 2.5625 C4 3 4 3 2 3 C0.37485532 4.45833358 0.37485532 4.45833358 -1 6 C-0.67 4.02 -0.34 2.04 0 0 Z " fill="#794B23" transform="translate(133,125)"/>
<path d="M0 0 C5.94 0 11.88 0 18 0 C18 0.66 18 1.32 18 2 C11.41276707 3.04559253 6.40766041 2.83292414 0 1 C0 0.67 0 0.34 0 0 Z " fill="#A18063" transform="translate(131,84)"/>
<path d="M0 0 C0.33 0 0.66 0 1 0 C3.28571429 8.42857143 3.28571429 8.42857143 3 13 C2.01 13 1.02 13 0 13 C-0.19397476 11.02145742 -0.38001321 9.0421352 -0.5625 7.0625 C-0.66691406 5.96035156 -0.77132812 4.85820313 -0.87890625 3.72265625 C-0.91886719 2.82417969 -0.95882812 1.92570312 -1 1 C-0.67 0.67 -0.34 0.34 0 0 Z " fill="#DED2C8" transform="translate(124,34)"/>
<path d="M0 0 C0.33 0 0.66 0 1 0 C1.02694851 1.95825873 1.04637218 3.91662226 1.0625 5.875 C1.07410156 6.96554688 1.08570312 8.05609375 1.09765625 9.1796875 C1 12 1 12 0 14 C-0.66 14 -1.32 14 -2 14 C-2.1799928 8.78020872 -1.97094808 4.92737019 0 0 Z " fill="#E8E0D8" transform="translate(126,215)"/>
<path d="M0 0 C0.53625 0.763125 1.0725 1.52625 1.625 2.3125 C4.21781883 5.2464792 6.47369001 6.39016283 10 8 C10.66 8.66 11.32 9.32 12 10 C8.89940877 9.98699962 5.99727602 9.82903379 3 9 C0.68691968 5.77570622 0 3.95376154 0 0 Z " fill="#997556" transform="translate(126,153)"/>
<path d="M0 0 C0.66 0 1.32 0 2 0 C4.04169485 2.90548882 5 4.40142046 5 8 C2 7 2 7 0.3125 3.9375 C-0.120625 2.968125 -0.55375 1.99875 -1 1 C-0.67 0.67 -0.34 0.34 0 0 Z " fill="#E9E2DC" transform="translate(186,209)"/>
<path d="M0 0 C2.96175123 0.61277612 4.38058783 1.25372522 7 3 C7 3.99 7 4.98 7 6 C2.32307692 4.52307692 2.32307692 4.52307692 0.6875 1.875 C0.460625 1.25625 0.23375 0.6375 0 0 Z " fill="#EAE3DD" transform="translate(208,190)"/>
<path d="M0 0 C1.423125 0.37125 1.423125 0.37125 2.875 0.75 C3.205 1.41 3.535 2.07 3.875 2.75 C-1.54038462 3.98076923 -1.54038462 3.98076923 -4.5 2.8125 C-5.03625 2.461875 -5.5725 2.11125 -6.125 1.75 C-3.125 -0.25 -3.125 -0.25 0 0 Z " fill="#957150" transform="translate(151.125,137.25)"/>
<path d="M0 0 C2.5 1.625 2.5 1.625 5 4 C5.3125 7.25 5.3125 7.25 5 10 C4.67 10 4.34 10 4 10 C4 8.35 4 6.7 4 5 C2.68 5 1.36 5 0 5 C0 3.35 0 1.7 0 0 Z " fill="#D9CCC1" transform="translate(98,208)"/>
<path d="M0 0 C0.99 0.33 1.98 0.66 3 1 C3.33 2.98 3.66 4.96 4 7 C3.34 6.67 2.68 6.34 2 6 C2 5.34 2 4.68 2 4 C1.01 4.33 0.02 4.66 -1 5 C-0.67 3.35 -0.34 1.7 0 0 Z " fill="#C9B7A6" transform="translate(120,137)"/>
<path d="M0 0 C0.99 0.33 1.98 0.66 3 1 C2.67 2.32 2.34 3.64 2 5 C1.34 4.67 0.68 4.34 0 4 C-0.33 4.99 -0.66 5.98 -1 7 C-2 4 -2 4 -1.0625 1.8125 C-0.5365625 0.9153125 -0.5365625 0.9153125 0 0 Z " fill="#C9B7A6" transform="translate(160,137)"/>
<path d="M0 0 C3.125 0.375 3.125 0.375 6 1 C5 3 5 3 3.125 3.75 C1 4 1 4 -2 2 C-1.34 1.34 -0.68 0.68 0 0 Z " fill="#8E6744" transform="translate(130,137)"/>
<path d="M0 0 C0.66 0.33 1.32 0.66 2 1 C0.92598892 3.91517292 0.22189824 5.77810176 -2 8 C-2.33 7.01 -2.66 6.02 -3 5 C-1.5625 2.3125 -1.5625 2.3125 0 0 Z " fill="#F1ECE7" transform="translate(189,51)"/>
</svg>
